<svg width="24" height="24" viewBox="0 0 24 24" fill="none" xmlns="http://www.w3.org/2000/svg">
<path d="M11.2686 1.25C10.1538 1.25 9.25 2.15376 9.25 3.2686C9.25 3.48804 9.09296 3.73824 8.78995 3.8578C8.6967 3.89459 8.60424 3.93293 8.5126 3.97279C8.21401 4.10268 7.92599 4.0369 7.77071 3.88162C6.98229 3.0932 5.70402 3.0932 4.9156 3.88162L3.88162 4.9156C3.0932 5.70402 3.0932 6.98229 3.88162 7.7707C4.0369 7.92598 4.10268 8.214 3.97279 8.51259C3.93293 8.60423 3.89459 8.6967 3.8578 8.78994C3.73825 9.09296 3.48804 9.25 3.2686 9.25C2.15376 9.25 1.25 10.1538 1.25 11.2686V12.7314C1.25 13.8462 2.15376 14.75 3.2686 14.75C3.48804 14.75 3.73824 14.907 3.8578 15.2101C3.89459 15.3033 3.93293 15.3958 3.97279 15.4874C4.10268 15.786 4.0369 16.074 3.88162 16.2293C3.0932 17.0177 3.0932 18.296 3.88162 19.0844L4.9156 20.1184C5.70402 20.9068 6.98229 20.9068 7.7707 20.1184C7.92598 19.9631 8.214 19.8973 8.51259 20.0272C8.60424 20.0671 8.6967 20.1054 8.78995 20.1422C9.09296 20.2618 9.25 20.512 9.25 20.7314C9.25 21.8462 10.1538 22.75 11.2686 22.75H12.7314C13.8462 22.75 14.75 21.8462 14.75 20.7314C14.75 20.512 14.907 20.2618 15.2101 20.1422C15.3033 20.1054 15.3958 20.0671 15.4874 20.0272C15.786 19.8973 16.074 19.9631 16.2293 20.1184C17.0177 20.9068 18.296 20.9068 19.0844 20.1184L20.1184 19.0844C20.9068 18.296 20.9068 17.0177 20.1184 16.2293C19.9631 16.074 19.8973 15.786 20.0272 15.4874C20.0671 15.3958 20.1054 15.3033 20.1422 15.2101C20.2618 14.907 20.512 14.75 20.7314 14.75C21.8462 14.75 22.75 13.8462 22.75 12.7314V11.2686C22.75 10.1538 21.8462 9.25 20.7314 9.25C20.512 9.25 20.2618 9.09296 20.1422 8.78994C20.1054 8.6967 20.0671 8.60424 20.0272 8.5126C19.8973 8.21401 19.9631 7.92598 20.1184 7.7707C20.9068 6.98228 20.9068 5.704 20.1184 4.91558L19.0844 3.88161C18.296 3.09319 17.0177 3.09319 16.2293 3.88161C16.074 4.0369 15.786 4.10267 15.4874 3.97279C15.3958 3.93293 15.3033 3.89458 15.2101 3.8578C14.907 3.73824 14.75 3.48804 14.75 3.2686C14.75 2.15376 13.8462 1.25 12.7314 1.25H11.2686Z" fill="url(#paint0_linear_8_2)"/>
<path d="M12 7.25C9.37665 7.25 7.25 9.37665 7.25 12C7.25 14.6234 9.37665 16.75 12 16.75C14.6234 16.75 16.75 14.6234 16.75 12C16.75 9.37665 14.6234 7.25 12 7.25Z" fill="#577C8C"/>
<defs>
<linearGradient id="paint0_linear_8_2" x1="12" y1="1.25" x2="12" y2="22.75" gradientUnits="userSpaceOnUse">
<stop stop-color="#FCBF5F"/>
<stop offset="1" stop-color="#85C3DE"/>
</linearGradient>
</defs>
</svg>
