<svg width="24" height="24" viewBox="0 0 24 24" fill="none" xmlns="http://www.w3.org/2000/svg">
<path d="M1.25 7V13C1.25 15.6234 3.37665 17.75 6 17.75H14C16.6234 17.75 18.75 15.6234 18.75 13V7H1.25Z" fill="url(#paint0_linear_7_16)"/>
<path d="M6 2.25C3.37665 2.25 1.25 4.37665 1.25 7H18.75C18.75 4.37665 16.6234 2.25 14 2.25H6Z" fill="#FCBF5F"/>
<path d="M17 11.25C13.8244 11.25 11.25 13.8244 11.25 17C11.25 20.1756 13.8244 22.75 17 22.75C20.1756 22.75 22.75 20.1756 22.75 17C22.75 13.8244 20.1756 11.25 17 11.25ZM3.25 9C3.25 8.58579 3.58579 8.25 4 8.25H6C6.41421 8.25 6.75 8.58579 6.75 9C6.75 9.41421 6.41421 9.75 6 9.75H4C3.58579 9.75 3.25 9.41421 3.25 9ZM7.25 9C7.25 8.58579 7.58579 8.25 8 8.25H10C10.4142 8.25 10.75 8.58579 10.75 9C10.75 9.41421 10.4142 9.75 10 9.75H8C7.58579 9.75 7.25 9.41421 7.25 9ZM12 8.25C11.5858 8.25 11.25 8.58579 11.25 9C11.25 9.41421 11.5858 9.75 12 9.75H14C14.4142 9.75 14.75 9.41421 14.75 9C14.75 8.58579 14.4142 8.25 14 8.25H12ZM7.25 12C7.25 11.5858 7.58579 11.25 8 11.25H10C10.4142 11.25 10.75 11.5858 10.75 12C10.75 12.4142 10.4142 12.75 10 12.75H8C7.58579 12.75 7.25 12.4142 7.25 12ZM4 11.25C3.58579 11.25 3.25 11.5858 3.25 12C3.25 12.4142 3.58579 12.75 4 12.75H6C6.41421 12.75 6.75 12.4142 6.75 12C6.75 11.5858 6.41421 11.25 6 11.25H4Z" fill="#577C8C"/>
<path d="M17 13.25C16.0335 13.25 15.25 14.0335 15.25 15C15.25 15.9665 16.0335 16.75 17 16.75C17.9665 16.75 18.75 15.9665 18.75 15C18.75 14.0335 17.9665 13.25 17 13.25ZM16 17.25C15.0335 17.25 14.25 18.0335 14.25 19C14.25 19.9665 15.0335 20.75 16 20.75H18C18.9665 20.75 19.75 19.9665 19.75 19C19.75 18.0335 18.9665 17.25 18 17.25H16Z" fill="#FCBF5F"/>
<path d="M7.75 2C7.75 1.58579 7.41421 1.25 7 1.25C6.58579 1.25 6.25 1.58579 6.25 2V4C6.25 4.41421 6.58579 4.75 7 4.75C7.41421 4.75 7.75 4.41421 7.75 4V2ZM13.75 2C13.75 1.58579 13.4142 1.25 13 1.25C12.5858 1.25 12.25 1.58579 12.25 2V4C12.25 4.41421 12.5858 4.75 13 4.75C13.4142 4.75 13.75 4.41421 13.75 4V2Z" fill="#577C8C"/>
<defs>
<linearGradient id="paint0_linear_7_16" x1="12" y1="1.25" x2="12" y2="22.75" gradientUnits="userSpaceOnUse">
<stop stop-color="#AEE7FF"/>
<stop offset="1" stop-color="#85C3DE"/>
</linearGradient>
</defs>
</svg>
