<svg width="24" height="24" viewBox="0 0 24 24" fill="none" xmlns="http://www.w3.org/2000/svg">
<path d="M21.3159 5.42281C20.7907 4.57309 19.9154 4.26365 19.0114 4.12942C18.1392 3.99991 16.9904 3.99995 15.6101 4H4C3.44772 4 3 4.44772 3 5V10.0658C2.99995 10.9523 2.99991 11.7161 3.08215 12.3278C3.17028 12.9833 3.36902 13.6117 3.87868 14.1213C4.38835 14.631 5.0167 14.8297 5.67221 14.9179C6.28387 15.0001 7.04769 15.0001 7.93417 15H15.0742C15.636 15 16.1313 15.0001 16.5443 14.9574C16.9917 14.9111 17.426 14.8085 17.8411 14.552C18.2563 14.2954 18.5423 13.9528 18.7837 13.5733C19.0066 13.223 19.2281 12.78 19.4793 12.2776L20.0368 11.1625C20.6541 9.92797 21.1679 8.90042 21.4421 8.06244C21.7263 7.19385 21.841 6.27253 21.3159 5.42281Z" fill="url(#paint0_linear_8_5)"/>
<path d="M8 19C6.89543 19 6 19.8954 6 21C6 22.1046 6.89543 23 8 23C9.10457 23 10 22.1046 10 21C10 19.8954 9.10457 19 8 19ZM15 19C13.8954 19 13 19.8954 13 21C13 22.1046 13.8954 23 15 23C16.1046 23 17 22.1046 17 21C17 19.8954 16.1046 19 15 19Z" fill="#FCBF5F"/>
<path d="M2 1C1.44772 1 1 1.44772 1 2C1 2.55228 1.44772 3 2 3C2.25458 3 2.47736 3.17116 2.54296 3.41714L3 5.13106V5C3 4.44772 3.44772 4 4 4H4.76828L4.47543 2.90182C4.17636 1.78032 3.16069 1 2 1ZM4.03595 14.2659C4.515 14.6698 5.08262 14.8386 5.67221 14.9179C5.88942 14.9471 6.12582 14.9659 6.38009 14.978L6.49283 15.3163C6.62895 15.7246 7.01108 16 7.44151 16H17C17.5523 16 18 16.4477 18 17C18 17.5523 17.5523 18 17 18H7.44151C6.15022 18 5.00381 17.1737 4.59546 15.9487L4.05131 14.3163C4.04573 14.2995 4.04061 14.2827 4.03595 14.2659Z" fill="#577C8C"/>
<defs>
<linearGradient id="paint0_linear_8_5" x1="11.341" y1="1" x2="11.341" y2="23" gradientUnits="userSpaceOnUse">
<stop stop-color="#AEE7FF"/>
<stop offset="1" stop-color="#85C3DE"/>
</linearGradient>
</defs>
</svg>
