<svg width="24" height="24" viewBox="0 0 24 24" fill="none" xmlns="http://www.w3.org/2000/svg">
<path d="M6.88375 7.00002C6.06648 6.99982 5.50939 6.99968 5.02459 7.09611C3.04113 7.49064 1.49064 9.04113 1.09611 11.0246C0.999675 11.5094 0.999814 12.0667 1.00002 12.8843V13.1158C0.999814 13.9334 0.999675 14.4907 1.09611 14.9755C1.49064 16.9589 3.04113 18.5094 5.02459 18.904C5.50939 19.0004 6.06667 19.0003 6.88428 19.0001H17.1158C17.9334 19.0003 18.4907 19.0004 18.9755 18.904C20.9589 18.5094 22.5094 16.9589 22.904 14.9755C23.0004 14.4907 23.0003 13.9334 23.0001 13.1158V12.8843C23.0003 12.0667 23.0004 11.5094 22.904 11.0246C22.5094 9.04113 20.9589 7.49064 18.9755 7.09611C18.4907 6.99968 17.9336 6.99982 17.1163 7.00002H6.88375Z" fill="url(#paint0_linear_8_9)"/>
<path d="M7.36086 23C5.50704 23 4.09691 21.3354 4.40167 19.5068L5.01354 15.8356C5.09391 15.3534 5.5111 15 5.99994 15H17.9999C18.4888 15 18.906 15.3534 18.9863 15.8356L19.5982 19.5068C19.903 21.3354 18.4928 23 16.639 23H7.36086Z" fill="#577C8C"/>
<path fill-rule="evenodd" clip-rule="evenodd" d="M15 11C15 10.4477 15.4477 10 16 10H18C18.5523 10 19 10.4477 19 11C19 11.5523 18.5523 12 18 12H16C15.4477 12 15 11.5523 15 11Z" fill="#FCBF5F"/>
<path d="M6.40167 4.4932C6.09691 2.6646 7.50704 1 9.36086 1H14.639C16.4928 1 17.903 2.6646 17.5982 4.4932L17.1804 7C17.1592 7.00001 17.1378 7.00001 17.1162 7.00002H6.88365C6.86208 7.00001 6.84069 7.00001 6.81948 7L6.40167 4.4932Z" fill="#FCBF5F"/>
<defs>
<linearGradient id="paint0_linear_8_9" x1="12" y1="0.999999" x2="12" y2="23" gradientUnits="userSpaceOnUse">
<stop stop-color="#AEE7FF"/>
<stop offset="1" stop-color="#85C3DE"/>
</linearGradient>
</defs>
</svg>
