<svg width="24" height="24" viewBox="0 0 24 24" fill="none" xmlns="http://www.w3.org/2000/svg">
<path d="M9 3.25C6.37665 3.25 4.25 5.37665 4.25 8V18C4.25 20.6234 6.37665 22.75 9 22.75H15C17.6234 22.75 19.75 20.6234 19.75 18V8C19.75 5.37665 17.6234 3.25 15 3.25H9Z" fill="url(#paint0_linear_8_14)"/>
<path d="M11 1.25C9.48122 1.25 8.25 2.48122 8.25 4C8.25 5.51878 9.48122 6.75 11 6.75H13C14.5188 6.75 15.75 5.51878 15.75 4C15.75 2.48122 14.5188 1.25 13 1.25H11Z" fill="#FCBF5F"/>
<path d="M9 10.25C8.58579 10.25 8.25 10.5858 8.25 11C8.25 11.4142 8.58579 11.75 9 11.75H15C15.4142 11.75 15.75 11.4142 15.75 11C15.75 10.5858 15.4142 10.25 15 10.25H9ZM9 14.25C8.58579 14.25 8.25 14.5858 8.25 15C8.25 15.4142 8.58579 15.75 9 15.75H15C15.4142 15.75 15.75 15.4142 15.75 15C15.75 14.5858 15.4142 14.25 15 14.25H9Z" fill="#577C8C"/>
<defs>
<linearGradient id="paint0_linear_8_14" x1="12" y1="1.25" x2="12" y2="22.75" gradientUnits="userSpaceOnUse">
<stop stop-color="#AEE7FF"/>
<stop offset="1" stop-color="#85C3DE"/>
</linearGradient>
</defs>
</svg>
