<svg width="24" height="24" viewBox="0 0 24 24" fill="none" xmlns="http://www.w3.org/2000/svg">
<path d="M7 1.25C4.37665 1.25 2.25 3.37665 2.25 6V16C2.25 18.6234 4.37665 20.75 7 20.75H15C17.6234 20.75 19.75 18.6234 19.75 16V6C19.75 3.37665 17.6234 1.25 15 1.25H7Z" fill="url(#paint0_linear_7_8)"/>
<path fill-rule="evenodd" clip-rule="evenodd" d="M19.636 15.6025C19.8555 15.9538 19.7487 16.4165 19.3975 16.636L16.1975 18.636C16.0212 18.7462 15.8072 18.7782 15.6064 18.7246C15.4056 18.6709 15.236 18.5363 15.1382 18.3529L14.3382 16.8529C14.1433 16.4875 14.2816 16.0332 14.6471 15.8382C15.0125 15.6433 15.4668 15.7816 15.6618 16.1471L16.0837 16.9382L18.6025 15.364C18.9537 15.1445 19.4165 15.2512 19.636 15.6025ZM6.25 6C6.25 5.58579 6.58579 5.25 7 5.25H15C15.4142 5.25 15.75 5.58579 15.75 6C15.75 6.41421 15.4142 6.75 15 6.75H7C6.58579 6.75 6.25 6.41421 6.25 6ZM6.25 10C6.25 9.58579 6.58579 9.25 7 9.25H11C11.4142 9.25 11.75 9.58579 11.75 10C11.75 10.4142 11.4142 10.75 11 10.75H7C6.58579 10.75 6.25 10.4142 6.25 10Z" fill="#FCBF5F"/>
<path d="M16.75 11C13.5744 11 11 13.5744 11 16.75C11 19.9256 13.5744 22.5 16.75 22.5C19.9256 22.5 22.5 19.9256 22.5 16.75C22.5 13.5744 19.9256 11 16.75 11Z" fill="#577C8C"/>
<path d="M16.75 13C15.7835 13 15 13.7835 15 14.75C15 15.7165 15.7835 16.5 16.75 16.5C17.7165 16.5 18.5 15.7165 18.5 14.75C18.5 13.7835 17.7165 13 16.75 13ZM15.75 17C14.7835 17 14 17.7835 14 18.75C14 19.7165 14.7835 20.5 15.75 20.5H17.75C18.7165 20.5 19.5 19.7165 19.5 18.75C19.5 17.7835 18.7165 17 17.75 17H15.75Z" fill="#FCBF5F"/>
<defs>
<linearGradient id="paint0_linear_7_8" x1="12.5" y1="1.25" x2="12.5" y2="22.75" gradientUnits="userSpaceOnUse">
<stop stop-color="#AEE7FF"/>
<stop offset="1" stop-color="#85C3DE"/>
</linearGradient>
</defs>
</svg>
